<svg width="468" height="60" viewBox="0 0 468 60" fill="none" xmlns="http://www.w3.org/2000/svg">
<path d="M10.904 8.744V39.848C10.904 43.256 11.792 45.872 13.568 47.696C15.344 49.472 17.84 50.36 21.056 50.36C24.32 50.36 26.84 49.472 28.616 47.696C30.392 45.872 31.28 43.256 31.28 39.848V8.744H41.432V39.776C41.432 44.048 40.496 47.672 38.624 50.648C36.8 53.576 34.328 55.784 31.208 57.272C28.136 58.76 24.704 59.504 20.912 59.504C17.168 59.504 13.76 58.76 10.688 57.272C7.664 55.784 5.264 53.576 3.488 50.648C1.712 47.672 0.824 44.048 0.824 39.776V8.744H10.904ZM66.4351 59.648C63.1711 59.648 60.2431 59.072 57.6511 57.92C55.0591 56.72 52.9951 55.112 51.4591 53.096C49.9711 51.08 49.1551 48.848 49.0111 46.4H59.1631C59.3551 47.936 60.0991 49.208 61.3951 50.216C62.7391 51.224 64.3951 51.728 66.3631 51.728C68.2831 51.728 69.7711 51.344 70.8271 50.576C71.9311 49.808 72.4831 48.824 72.4831 47.624C72.4831 46.328 71.8111 45.368 70.4671 44.744C69.1711 44.072 67.0831 43.352 64.2031 42.584C61.2271 41.864 58.7791 41.12 56.8591 40.352C54.9871 39.584 53.3551 38.408 51.9631 36.824C50.6191 35.24 49.9471 33.104 49.9471 30.416C49.9471 28.208 50.5711 26.192 51.8191 24.368C53.1151 22.544 54.9391 21.104 57.2911 20.048C59.6911 18.992 62.4991 18.464 65.7151 18.464C70.4671 18.464 74.2591 19.664 77.0911 22.064C79.9231 24.416 81.4831 27.608 81.7711 31.64H72.1231C71.9791 30.056 71.3071 28.808 70.1071 27.896C68.9551 26.936 67.3951 26.456 65.4271 26.456C63.6031 26.456 62.1871 26.792 61.1791 27.464C60.2191 28.136 59.7391 29.072 59.7391 30.272C59.7391 31.616 60.4111 32.648 61.7551 33.368C63.0991 34.04 65.1871 34.736 68.0191 35.456C70.8991 36.176 73.2751 36.92 75.1471 37.688C77.0191 38.456 78.6271 39.656 79.9711 41.288C81.3631 42.872 82.0831 44.984 82.1311 47.624C82.1311 49.928 81.4831 51.992 80.1871 53.816C78.9391 55.64 77.1151 57.08 74.7151 58.136C72.3631 59.144 69.6031 59.648 66.4351 59.648ZM128.062 19.112V59H117.91V53.96C116.614 55.688 114.91 57.056 112.798 58.064C110.734 59.024 108.478 59.504 106.03 59.504C102.91 59.504 100.15 58.856 97.7495 57.56C95.3495 56.216 93.4535 54.272 92.0615 51.728C90.7175 49.136 90.0455 46.064 90.0455 42.512V19.112H100.126V41.072C100.126 44.24 100.918 46.688 102.502 48.416C104.086 50.096 106.246 50.936 108.982 50.936C111.766 50.936 113.95 50.096 115.534 48.416C117.118 46.688 117.91 44.24 117.91 41.072V19.112H128.062ZM135.415 38.912C135.415 34.88 136.207 31.304 137.791 28.184C139.423 25.064 141.607 22.664 144.343 20.984C147.127 19.304 150.223 18.464 153.631 18.464C156.607 18.464 159.199 19.064 161.407 20.264C163.663 21.464 165.463 22.976 166.807 24.8V19.112H176.959V59H166.807V53.168C165.511 55.04 163.711 56.6 161.407 57.848C159.151 59.048 156.535 59.648 153.559 59.648C150.199 59.648 147.127 58.784 144.343 57.056C141.607 55.328 139.423 52.904 137.791 49.784C136.207 46.616 135.415 42.992 135.415 38.912ZM166.807 39.056C166.807 36.608 166.327 34.52 165.367 32.792C164.407 31.016 163.111 29.672 161.479 28.76C159.847 27.8 158.095 27.32 156.223 27.32C154.351 27.32 152.623 27.776 151.039 28.688C149.455 29.6 148.159 30.944 147.151 32.72C146.191 34.448 145.711 36.512 145.711 38.912C145.711 41.312 146.191 43.424 147.151 45.248C148.159 47.024 149.455 48.392 151.039 49.352C152.671 50.312 154.399 50.792 156.223 50.792C158.095 50.792 159.847 50.336 161.479 49.424C163.111 48.464 164.407 47.12 165.367 45.392C166.327 43.616 166.807 41.504 166.807 39.056ZM165.439 8.744L148.879 16.304V9.104L165.439 0.535997V8.744ZM196.884 25.304C198.18 23.192 199.86 21.536 201.924 20.336C204.036 19.136 206.436 18.536 209.124 18.536V29.12H206.46C203.292 29.12 200.892 29.864 199.26 31.352C197.676 32.84 196.884 35.432 196.884 39.128V59H186.804V19.112H196.884V25.304ZM221.025 14.36C219.249 14.36 217.761 13.808 216.561 12.704C215.409 11.552 214.833 10.136 214.833 8.456C214.833 6.776 215.409 5.384 216.561 4.28C217.761 3.128 219.249 2.552 221.025 2.552C222.801 2.552 224.265 3.128 225.417 4.28C226.617 5.384 227.217 6.776 227.217 8.456C227.217 10.136 226.617 11.552 225.417 12.704C224.265 13.808 222.801 14.36 221.025 14.36ZM225.993 19.112V59H215.913V19.112H225.993ZM253.664 59.648C249.824 59.648 246.368 58.808 243.296 57.128C240.224 55.4 237.8 52.976 236.024 49.856C234.296 46.736 233.432 43.136 233.432 39.056C233.432 34.976 234.32 31.376 236.096 28.256C237.92 25.136 240.392 22.736 243.512 21.056C246.632 19.328 250.112 18.464 253.952 18.464C257.792 18.464 261.272 19.328 264.392 21.056C267.512 22.736 269.96 25.136 271.736 28.256C273.56 31.376 274.472 34.976 274.472 39.056C274.472 43.136 273.536 46.736 271.664 49.856C269.84 52.976 267.344 55.4 264.176 57.128C261.056 58.808 257.552 59.648 253.664 59.648ZM253.664 50.864C255.488 50.864 257.192 50.432 258.776 49.568C260.408 48.656 261.704 47.312 262.664 45.536C263.624 43.76 264.104 41.6 264.104 39.056C264.104 35.264 263.096 32.36 261.08 30.344C259.112 28.28 256.688 27.248 253.808 27.248C250.928 27.248 248.504 28.28 246.536 30.344C244.616 32.36 243.656 35.264 243.656 39.056C243.656 42.848 244.592 45.776 246.464 47.84C248.384 49.856 250.784 50.864 253.664 50.864ZM297.13 59.648C293.866 59.648 290.938 59.072 288.346 57.92C285.754 56.72 283.69 55.112 282.154 53.096C280.666 51.08 279.85 48.848 279.706 46.4H289.858C290.05 47.936 290.794 49.208 292.09 50.216C293.434 51.224 295.09 51.728 297.058 51.728C298.978 51.728 300.466 51.344 301.522 50.576C302.626 49.808 303.178 48.824 303.178 47.624C303.178 46.328 302.506 45.368 301.162 44.744C299.866 44.072 297.778 43.352 294.898 42.584C291.922 41.864 289.474 41.12 287.554 40.352C285.682 39.584 284.05 38.408 282.658 36.824C281.314 35.24 280.642 33.104 280.642 30.416C280.642 28.208 281.266 26.192 282.514 24.368C283.81 22.544 285.634 21.104 287.986 20.048C290.386 18.992 293.194 18.464 296.41 18.464C301.162 18.464 304.954 19.664 307.786 22.064C310.618 24.416 312.178 27.608 312.466 31.64H302.818C302.674 30.056 302.002 28.808 300.802 27.896C299.65 26.936 298.09 26.456 296.122 26.456C294.298 26.456 292.882 26.792 291.874 27.464C290.914 28.136 290.434 29.072 290.434 30.272C290.434 31.616 291.106 32.648 292.45 33.368C293.794 34.04 295.882 34.736 298.714 35.456C301.594 36.176 303.97 36.92 305.842 37.688C307.714 38.456 309.322 39.656 310.666 41.288C312.058 42.872 312.778 44.984 312.826 47.624C312.826 49.928 312.178 51.992 310.882 53.816C309.634 55.64 307.81 57.08 305.41 58.136C303.058 59.144 300.298 59.648 297.13 59.648ZM325.565 59.504C323.741 59.504 322.229 58.952 321.029 57.848C319.877 56.696 319.301 55.28 319.301 53.6C319.301 51.92 319.877 50.528 321.029 49.424C322.229 48.272 323.741 47.696 325.565 47.696C327.341 47.696 328.805 48.272 329.957 49.424C331.109 50.528 331.685 51.92 331.685 53.6C331.685 55.28 331.109 56.696 329.957 57.848C328.805 58.952 327.341 59.504 325.565 59.504Z" fill="#D3D3D3"/>
<path d="M356.436 49.712L366.516 19.112H377.244L362.484 59H350.244L335.556 19.112H346.356L356.436 49.712ZM420.562 19.112V59H410.41V53.96C409.114 55.688 407.41 57.056 405.298 58.064C403.234 59.024 400.978 59.504 398.53 59.504C395.41 59.504 392.65 58.856 390.25 57.56C387.85 56.216 385.954 54.272 384.562 51.728C383.218 49.136 382.546 46.064 382.546 42.512V19.112H392.626V41.072C392.626 44.24 393.418 46.688 395.002 48.416C396.586 50.096 398.746 50.936 401.482 50.936C404.266 50.936 406.45 50.096 408.034 48.416C409.618 46.688 410.41 44.24 410.41 41.072V19.112H420.562ZM467.587 38.192C467.587 39.632 467.491 40.928 467.299 42.08H438.139C438.379 44.96 439.387 47.216 441.163 48.848C442.939 50.48 445.123 51.296 447.715 51.296C451.459 51.296 454.123 49.688 455.707 46.472H466.579C465.427 50.312 463.219 53.48 459.955 55.976C456.691 58.424 452.683 59.648 447.931 59.648C444.091 59.648 440.635 58.808 437.563 57.128C434.539 55.4 432.163 52.976 430.435 49.856C428.755 46.736 427.915 43.136 427.915 39.056C427.915 34.928 428.755 31.304 430.435 28.184C432.115 25.064 434.467 22.664 437.491 20.984C440.515 19.304 443.995 18.464 447.931 18.464C451.723 18.464 455.107 19.28 458.083 20.912C461.107 22.544 463.435 24.872 465.067 27.896C466.747 30.872 467.587 34.304 467.587 38.192ZM457.147 35.312C457.099 32.72 456.163 30.656 454.339 29.12C452.515 27.536 450.283 26.744 447.643 26.744C445.147 26.744 443.035 27.512 441.307 29.048C439.627 30.536 438.595 32.624 438.211 35.312H457.147Z" fill="#4FC08D"/>
</svg>
